<?xml version="1.0" encoding="UTF-8" standalone="no"?>
<!DOCTYPE svg PUBLIC "-//W3C//DTD SVG 1.1//EN"
 "http://www.w3.org/Graphics/SVG/1.1/DTD/svg11.dtd">
<!-- Generated by graphviz version 12.2.1 (20241206.2353)
 -->
<!-- Title: Firewall_System_Overall_Architecture Pages: 1 -->
<svg width="1500pt" height="1115pt"
 viewBox="0.00 0.00 1500.00 1114.78" xmlns="http://www.w3.org/2000/svg" xmlns:xlink="http://www.w3.org/1999/xlink">
<g id="graph0" class="graph" transform="scale(1 1) rotate(0) translate(4 1110.78)">
<title>Firewall_System_Overall_Architecture</title>
<polygon fill="white" stroke="none" points="-4,4 -4,-1110.78 1496,-1110.78 1496,4 -4,4"/>
<text text-anchor="middle" x="746" y="-1083.78" font-family="Microsoft YaHei" font-size="20.00">防火墙系统总体架构图</text>
<g id="clust1" class="cluster">
<title>cluster_ui_layer</title>
<polygon fill="skyblue" stroke="skyblue" points="8,-848.28 8,-1063.78 306,-1063.78 306,-848.28 8,-848.28"/>
<text text-anchor="middle" x="157" y="-1040.78" font-family="Microsoft YaHei" font-size="20.00">用户界面层 (UI Layer)</text>
</g>
<g id="clust2" class="cluster">
<title>cluster_core_logic_layer</title>
<polygon fill="lightcoral" stroke="lightcoral" points="314,-254.28 314,-940.03 645,-940.03 645,-254.28 314,-254.28"/>
<text text-anchor="middle" x="479.5" y="-917.03" font-family="Microsoft YaHei" font-size="20.00">核心逻辑层 (Core Logic Layer)</text>
</g>
<g id="clust3" class="cluster">
<title>cluster_packet_handling</title>
<polygon fill="none" stroke="black" stroke-dasharray="5,2" points="391,-486.28 391,-811.53 548,-811.53 548,-486.28 391,-486.28"/>
<text text-anchor="middle" x="469.5" y="-788.53" font-family="Microsoft YaHei" font-size="20.00">数据包处理核心</text>
</g>
<g id="clust4" class="cluster">
<title>cluster_rule_management</title>
<polygon fill="none" stroke="black" stroke-dasharray="5,2" points="399,-262.28 399,-449.53 637,-449.53 637,-262.28 399,-262.28"/>
<text text-anchor="middle" x="518" y="-426.53" font-family="Microsoft YaHei" font-size="20.00">规则管理核心</text>
</g>
<g id="clust5" class="cluster">
<title>cluster_utils_config_layer</title>
<polygon fill="khaki" stroke="khaki" points="582,-132.53 582,-219.53 1332,-219.53 1332,-132.53 582,-132.53"/>
<text text-anchor="middle" x="957" y="-196.53" font-family="Microsoft YaHei" font-size="20.00">工具与配置层 (Utilities &amp; Config Layer)</text>
</g>
<g id="clust6" class="cluster">
<title>cluster_os_driver_layer</title>
<polygon fill="peachpuff" stroke="peachpuff" points="653,-491.03 653,-678.28 988,-678.28 988,-491.03 653,-491.03"/>
<text text-anchor="middle" x="820.5" y="-655.28" font-family="Microsoft YaHei" font-size="20.00">操作系统/驱动层 (OS/Driver Layer)</text>
</g>
<g id="clust7" class="cluster">
<title>cluster_data_storage</title>
<polygon fill="lightgrey" stroke="lightgrey" points="560,-8 560,-95.78 1123,-95.78 1123,-8 560,-8"/>
<text text-anchor="middle" x="841.5" y="-72.78" font-family="Microsoft YaHei" font-size="20.00">数据存储 (Data Storage)</text>
</g>
<!-- MainWindow -->
<g id="node1" class="node">
<title>MainWindow</title>
<polygon fill="lightblue" stroke="red" stroke-width="2" points="283.12,-1020.78 120.88,-1020.78 120.88,-984.78 283.12,-984.78 283.12,-1020.78"/>
<text text-anchor="middle" x="202" y="-998.86" font-family="Microsoft YaHei" font-size="14.00">MainWindow (主窗口)</text>
</g>
<!-- UITabs -->
<g id="node2" class="node">
<title>UITabs</title>
<polygon fill="lightblue" stroke="black" points="298.12,-901.78 15.88,-901.78 15.88,-856.28 298.12,-856.28 298.12,-901.78"/>
<text text-anchor="middle" x="157" y="-884.48" font-family="Microsoft YaHei" font-size="14.00">功能标签页</text>
<text text-anchor="middle" x="157" y="-865.73" font-family="Microsoft YaHei" font-size="14.00">(IP/端口/内容过滤, 流量/日志/性能监控等)</text>
</g>
<!-- MainWindow&#45;&gt;UITabs -->
<g id="edge1" class="edge">
<title>MainWindow&#45;&gt;UITabs</title>
<path fill="none" stroke="black" d="M195.36,-983.82C188.47,-965.17 177.54,-935.6 169.11,-912.78"/>
<polygon fill="black" stroke="black" points="172.47,-911.79 165.72,-903.62 165.9,-914.22 172.47,-911.79"/>
<text text-anchor="middle" x="217.2" y="-953.48" font-family="Microsoft YaHei" font-size="14.00">管理交互</text>
</g>
<!-- FirewallCore -->
<g id="node3" class="node">
<title>FirewallCore</title>
<polygon fill="lightgreen" stroke="red" stroke-width="2" points="527.12,-897.03 418.88,-897.03 418.88,-861.03 527.12,-861.03 527.12,-897.03"/>
<text text-anchor="middle" x="473" y="-875.11" font-family="Microsoft YaHei" font-size="14.00">Firewall (主控)</text>
</g>
<!-- MainWindow&#45;&gt;FirewallCore -->
<g id="edge16" class="edge">
<title>MainWindow&#45;&gt;FirewallCore</title>
<path fill="none" stroke="black" d="M241.99,-983.82C290.06,-962.22 370.77,-925.96 422.93,-902.52"/>
<polygon fill="black" stroke="black" points="424.22,-905.78 431.91,-898.49 421.35,-899.4 424.22,-905.78"/>
<text text-anchor="middle" x="381.27" y="-953.48" font-family="Microsoft YaHei" font-size="14.00">用户指令/状态反馈</text>
</g>
<!-- LoggingUtils -->
<g id="node11" class="node">
<title>LoggingUtils</title>
<polygon fill="lightyellow" stroke="black" points="1104.38,-176.53 931.62,-176.53 931.62,-140.53 1104.38,-140.53 1104.38,-176.53"/>
<text text-anchor="middle" x="1018" y="-154.61" font-family="Microsoft YaHei" font-size="14.00">LoggingUtils (日志工具)</text>
</g>
<!-- UITabs&#45;&gt;LoggingUtils -->
<g id="edge19" class="edge">
<title>UITabs&#45;&gt;LoggingUtils</title>
<path fill="none" stroke="black" d="M149.58,-844.52C149.47,-835.3 151.5,-826.06 158,-819.53 165.73,-811.78 541.19,-813.24 552,-811.53 753.81,-779.55 866.17,-839.27 992,-678.28 1023.44,-638.05 1019.6,-262.93 1018.3,-177.01"/>
<polygon fill="black" stroke="black" points="146.09,-844.84 150.52,-854.47 153.06,-844.18 146.09,-844.84"/>
<text text-anchor="middle" x="1079.84" y="-513.11" font-family="Microsoft YaHei" font-size="14.00">显示日志 (通过信号)</text>
</g>
<!-- PerformanceUtils -->
<g id="node13" class="node">
<title>PerformanceUtils</title>
<polygon fill="lightyellow" stroke="black" points="1323.62,-176.53 1122.38,-176.53 1122.38,-140.53 1323.62,-140.53 1323.62,-176.53"/>
<text text-anchor="middle" x="1223" y="-154.61" font-family="Microsoft YaHei" font-size="14.00">PerformanceUtils (性能工具)</text>
</g>
<!-- UITabs&#45;&gt;PerformanceUtils -->
<g id="edge20" class="edge">
<title>UITabs&#45;&gt;PerformanceUtils</title>
<path fill="none" stroke="black" d="M212.82,-851.31C241.22,-839.12 276.7,-825.98 310,-819.53 359.75,-809.89 716.66,-823.07 766,-811.53 873.73,-786.33 901.38,-769.9 991,-705.03 1073.06,-645.63 1101.46,-629.77 1148,-539.78 1213.99,-412.18 1222.08,-232.94 1222.94,-176.94"/>
<polygon fill="black" stroke="black" points="211.44,-848.1 203.69,-855.32 214.25,-854.51 211.44,-848.1"/>
<text text-anchor="middle" x="1234.58" y="-513.11" font-family="Microsoft YaHei" font-size="14.00">显示性能 (通过信号)</text>
</g>
<!-- PacketInterceptor -->
<g id="node4" class="node">
<title>PacketInterceptor</title>
<path fill="palegreen" stroke="red" stroke-width="2" d="M527.88,-768.53C527.88,-768.53 418.12,-768.53 418.12,-768.53 412.12,-768.53 406.12,-762.53 406.12,-756.53 406.12,-756.53 406.12,-735.03 406.12,-735.03 406.12,-729.03 412.12,-723.03 418.12,-723.03 418.12,-723.03 527.88,-723.03 527.88,-723.03 533.88,-723.03 539.88,-729.03 539.88,-735.03 539.88,-735.03 539.88,-756.53 539.88,-756.53 539.88,-762.53 533.88,-768.53 527.88,-768.53"/>
<text text-anchor="middle" x="473" y="-751.23" font-family="Microsoft YaHei" font-size="14.00">PacketInterceptor</text>
<text text-anchor="middle" x="473" y="-732.48" font-family="Microsoft YaHei" font-size="14.00">(数据包拦截模块)</text>
</g>
<!-- FirewallCore&#45;&gt;PacketInterceptor -->
<g id="edge2" class="edge">
<title>FirewallCore&#45;&gt;PacketInterceptor</title>
<path fill="none" stroke="black" d="M473,-860.06C473,-839.69 473,-806.05 473,-780.7"/>
<polygon fill="black" stroke="black" points="476.5,-780.89 473,-770.89 469.5,-780.89 476.5,-780.89"/>
<text text-anchor="middle" x="487.25" y="-824.98" font-family="Microsoft YaHei" font-size="14.00">控制</text>
</g>
<!-- PacketAnalyzer -->
<g id="node5" class="node">
<title>PacketAnalyzer</title>
<path fill="palegreen" stroke="red" stroke-width="2" d="M524.38,-539.78C524.38,-539.78 423.62,-539.78 423.62,-539.78 417.62,-539.78 411.62,-533.78 411.62,-527.78 411.62,-527.78 411.62,-506.28 411.62,-506.28 411.62,-500.28 417.62,-494.28 423.62,-494.28 423.62,-494.28 524.38,-494.28 524.38,-494.28 530.38,-494.28 536.38,-500.28 536.38,-506.28 536.38,-506.28 536.38,-527.78 536.38,-527.78 536.38,-533.78 530.38,-539.78 524.38,-539.78"/>
<text text-anchor="middle" x="474" y="-522.48" font-family="Microsoft YaHei" font-size="14.00">PacketAnalyzer</text>
<text text-anchor="middle" x="474" y="-503.73" font-family="Microsoft YaHei" font-size="14.00">(数据包分析模块)</text>
</g>
<!-- FirewallCore&#45;&gt;PacketAnalyzer -->
<g id="edge3" class="edge">
<title>FirewallCore&#45;&gt;PacketAnalyzer</title>
<path fill="none" stroke="black" d="M418.12,-863.83C401.53,-857.77 384.01,-849.46 370,-838.28 316.62,-795.69 330.5,-752.42 347.5,-686.28 361.91,-630.23 406.89,-579.15 439.11,-548.33"/>
<polygon fill="black" stroke="black" points="441.4,-550.99 446.31,-541.6 436.61,-545.88 441.4,-550.99"/>
<text text-anchor="middle" x="361.75" y="-691.73" font-family="Microsoft YaHei" font-size="14.00">配置</text>
</g>
<!-- PacketProcessor -->
<g id="node6" class="node">
<title>PacketProcessor</title>
<path fill="palegreen" stroke="red" stroke-width="2" d="M519.38,-640.03C519.38,-640.03 418.62,-640.03 418.62,-640.03 412.62,-640.03 406.62,-634.03 406.62,-628.03 406.62,-628.03 406.62,-606.53 406.62,-606.53 406.62,-600.53 412.62,-594.53 418.62,-594.53 418.62,-594.53 519.38,-594.53 519.38,-594.53 525.38,-594.53 531.38,-600.53 531.38,-606.53 531.38,-606.53 531.38,-628.03 531.38,-628.03 531.38,-634.03 525.38,-640.03 519.38,-640.03"/>
<text text-anchor="middle" x="469" y="-622.73" font-family="Microsoft YaHei" font-size="14.00">PacketProcessor</text>
<text text-anchor="middle" x="469" y="-603.98" font-family="Microsoft YaHei" font-size="14.00">(数据包处理模块)</text>
</g>
<!-- FirewallCore&#45;&gt;PacketProcessor -->
<g id="edge4" class="edge">
<title>FirewallCore&#45;&gt;PacketProcessor</title>
<path fill="none" stroke="black" d="M425.01,-860.15C403.67,-849.51 380.66,-833.68 368.5,-811.53 349.57,-777.05 353.82,-759.52 368.5,-723.03 375.54,-705.52 408.75,-672.64 435.09,-648.37"/>
<polygon fill="black" stroke="black" points="437.22,-651.17 442.25,-641.84 432.5,-646 437.22,-651.17"/>
<text text-anchor="middle" x="382.75" y="-741.86" font-family="Microsoft YaHei" font-size="14.00">控制</text>
</g>
<!-- RuleManager -->
<g id="node7" class="node">
<title>RuleManager</title>
<path fill="palegreen" stroke="red" stroke-width="2" d="M539.25,-406.53C539.25,-406.53 452.75,-406.53 452.75,-406.53 446.75,-406.53 440.75,-400.53 440.75,-394.53 440.75,-394.53 440.75,-373.03 440.75,-373.03 440.75,-367.03 446.75,-361.03 452.75,-361.03 452.75,-361.03 539.25,-361.03 539.25,-361.03 545.25,-361.03 551.25,-367.03 551.25,-373.03 551.25,-373.03 551.25,-394.53 551.25,-394.53 551.25,-400.53 545.25,-406.53 539.25,-406.53"/>
<text text-anchor="middle" x="496" y="-389.23" font-family="Microsoft YaHei" font-size="14.00">RuleManager</text>
<text text-anchor="middle" x="496" y="-370.48" font-family="Microsoft YaHei" font-size="14.00">(规则管理模块)</text>
</g>
<!-- FirewallCore&#45;&gt;RuleManager -->
<g id="edge5" class="edge">
<title>FirewallCore&#45;&gt;RuleManager</title>
<path fill="none" stroke="black" d="M501.25,-860.09C518.06,-848.14 538.65,-831.07 552,-811.53 569.14,-786.43 574,-777.17 574,-746.78 574,-746.78 574,-746.78 574,-516.03 574,-477.62 549.01,-440.64 527.31,-415.78"/>
<polygon fill="black" stroke="black" points="530.15,-413.69 520.84,-408.63 524.96,-418.39 530.15,-413.69"/>
<text text-anchor="middle" x="605.5" y="-613.36" font-family="Microsoft YaHei" font-size="14.00">使用/更新</text>
</g>
<!-- Config -->
<g id="node10" class="node">
<title>Config</title>
<polygon fill="lightyellow" stroke="black" points="913.38,-176.53 782.62,-176.53 782.62,-140.53 913.38,-140.53 913.38,-176.53"/>
<text text-anchor="middle" x="848" y="-154.61" font-family="Microsoft YaHei" font-size="14.00">Config (配置管理)</text>
</g>
<!-- FirewallCore&#45;&gt;Config -->
<g id="edge18" class="edge">
<title>FirewallCore&#45;&gt;Config</title>
<path fill="none" stroke="black" d="M528.03,-875.5C675.39,-868.33 1076.39,-846.12 1204,-811.53 1269.39,-793.81 1342,-814.53 1342,-746.78 1342,-746.78 1342,-746.78 1342,-287.28 1342,-192.96 1009.22,-257.78 923,-219.53 904.37,-211.27 886.43,-197.22 872.77,-184.79"/>
<polygon fill="black" stroke="black" points="875.23,-182.29 865.55,-177.97 870.42,-187.38 875.23,-182.29"/>
<text text-anchor="middle" x="1370.5" y="-513.11" font-family="Microsoft YaHei" font-size="14.00">获取配置</text>
</g>
<!-- FirewallCore&#45;&gt;LoggingUtils -->
<g id="edge17" class="edge">
<title>FirewallCore&#45;&gt;LoggingUtils</title>
<path fill="none" stroke="black" d="M527.99,-876.43C686.81,-871.35 1143.94,-853.4 1287,-811.53 1355.91,-791.37 1435,-818.58 1435,-746.78 1435,-746.78 1435,-746.78 1435,-287.28 1435,-249.23 1392.68,-264.39 1356,-254.28 1303.41,-239.79 1164.19,-238.37 1113,-219.53 1089.99,-211.06 1066.66,-196.44 1048.89,-183.75"/>
<polygon fill="black" stroke="black" points="1050.97,-180.94 1040.84,-177.85 1046.83,-186.59 1050.97,-180.94"/>
<text text-anchor="middle" x="1463.5" y="-513.11" font-family="Microsoft YaHei" font-size="14.00">记录日志</text>
</g>
<!-- PacketInterceptor&#45;&gt;PacketProcessor -->
<g id="edge6" class="edge">
<title>PacketInterceptor&#45;&gt;PacketProcessor</title>
<path fill="none" stroke="black" d="M470.32,-722.11C469.77,-716.53 469.28,-710.57 469,-705.03 468.13,-687.65 468.04,-668.29 468.21,-652.27"/>
<polygon fill="black" stroke="black" points="471.71,-652.33 468.36,-642.28 464.71,-652.22 471.71,-652.33"/>
<text text-anchor="middle" x="504.62" y="-691.73" font-family="Microsoft YaHei" font-size="14.00">原始数据包</text>
</g>
<!-- PyDivert -->
<g id="node14" class="node">
<title>PyDivert</title>
<polygon fill="orange" stroke="red" stroke-width="2" points="839.38,-635.28 660.62,-635.28 660.62,-599.28 839.38,-599.28 839.38,-635.28"/>
<text text-anchor="middle" x="750" y="-613.36" font-family="Microsoft YaHei" font-size="14.00">PyDivert/WinDivert 驱动</text>
</g>
<!-- PacketInterceptor&#45;&gt;PyDivert -->
<g id="edge11" class="edge">
<title>PacketInterceptor&#45;&gt;PyDivert</title>
<path fill="none" stroke="black" d="M540.6,-722.37C573.82,-710.57 614.12,-695.07 649,-678.28 670.96,-667.71 694.43,-653.93 713.22,-642.24"/>
<polygon fill="black" stroke="black" points="714.98,-645.27 721.57,-636.98 711.25,-639.35 714.98,-645.27"/>
<text text-anchor="middle" x="644.75" y="-691.73" font-family="Microsoft YaHei" font-size="14.00">调用</text>
</g>
<!-- PacketAnalyzer&#45;&gt;RuleManager -->
<g id="edge8" class="edge">
<title>PacketAnalyzer&#45;&gt;RuleManager</title>
<path fill="none" stroke="black" d="M456.17,-493.62C452.81,-488.23 449.79,-482.29 448,-476.28 445.62,-468.29 445.6,-465.51 448,-457.53 452.39,-442.89 460.79,-428.48 469.35,-416.4"/>
<polygon fill="black" stroke="black" points="472.1,-418.57 475.27,-408.46 466.49,-414.38 472.1,-418.57"/>
<text text-anchor="middle" x="476.5" y="-462.98" font-family="Microsoft YaHei" font-size="14.00">获取规则</text>
</g>
<!-- NetworkUtils -->
<g id="node12" class="node">
<title>NetworkUtils</title>
<polygon fill="lightyellow" stroke="black" points="764.12,-176.53 589.88,-176.53 589.88,-140.53 764.12,-140.53 764.12,-176.53"/>
<text text-anchor="middle" x="677" y="-154.61" font-family="Microsoft YaHei" font-size="14.00">NetworkUtils (网络工具)</text>
</g>
<!-- PacketAnalyzer&#45;&gt;NetworkUtils -->
<g id="edge22" class="edge">
<title>PacketAnalyzer&#45;&gt;NetworkUtils</title>
<path fill="none" stroke="black" d="M537.11,-506.99C573.19,-498.41 616.11,-481.76 641,-449.53 701.38,-371.35 690.74,-244.33 682.18,-187.99"/>
<polygon fill="black" stroke="black" points="685.66,-187.58 680.6,-178.28 678.75,-188.71 685.66,-187.58"/>
<text text-anchor="middle" x="728.61" y="-329.73" font-family="Microsoft YaHei" font-size="14.00">使用验证函数</text>
</g>
<!-- PacketProcessor&#45;&gt;PacketAnalyzer -->
<g id="edge7" class="edge">
<title>PacketProcessor&#45;&gt;PacketAnalyzer</title>
<path fill="none" stroke="black" d="M469.55,-593.77C469.88,-582.89 470.35,-569.65 471,-557.78 471.1,-555.88 471.22,-553.93 471.35,-551.96"/>
<polygon fill="black" stroke="black" points="474.82,-552.45 472.02,-542.23 467.84,-551.97 474.82,-552.45"/>
<text text-anchor="middle" x="499.5" y="-563.23" font-family="Microsoft YaHei" font-size="14.00">请求分析</text>
</g>
<!-- RuleStorage -->
<g id="node8" class="node">
<title>RuleStorage</title>
<path fill="palegreen" stroke="black" d="M492.88,-306.28C492.88,-306.28 419.12,-306.28 419.12,-306.28 413.12,-306.28 407.12,-300.28 407.12,-294.28 407.12,-294.28 407.12,-282.28 407.12,-282.28 407.12,-276.28 413.12,-270.28 419.12,-270.28 419.12,-270.28 492.88,-270.28 492.88,-270.28 498.88,-270.28 504.88,-276.28 504.88,-282.28 504.88,-282.28 504.88,-294.28 504.88,-294.28 504.88,-300.28 498.88,-306.28 492.88,-306.28"/>
<text text-anchor="middle" x="456" y="-284.36" font-family="Microsoft YaHei" font-size="14.00">RuleStorage</text>
</g>
<!-- RuleManager&#45;&gt;RuleStorage -->
<g id="edge9" class="edge">
<title>RuleManager&#45;&gt;RuleStorage</title>
<path fill="none" stroke="black" d="M486.32,-360.15C480.77,-347.18 473.77,-330.81 467.89,-317.07"/>
<polygon fill="black" stroke="black" points="471.21,-315.94 464.06,-308.12 464.78,-318.69 471.21,-315.94"/>
<text text-anchor="middle" x="495.64" y="-329.73" font-family="Microsoft YaHei" font-size="14.00">读/写</text>
</g>
<!-- RuleValidator -->
<g id="node9" class="node">
<title>RuleValidator</title>
<path fill="palegreen" stroke="black" d="M617,-306.28C617,-306.28 535,-306.28 535,-306.28 529,-306.28 523,-300.28 523,-294.28 523,-294.28 523,-282.28 523,-282.28 523,-276.28 529,-270.28 535,-270.28 535,-270.28 617,-270.28 617,-270.28 623,-270.28 629,-276.28 629,-282.28 629,-282.28 629,-294.28 629,-294.28 629,-300.28 623,-306.28 617,-306.28"/>
<text text-anchor="middle" x="576" y="-284.36" font-family="Microsoft YaHei" font-size="14.00">RuleValidator</text>
</g>
<!-- RuleManager&#45;&gt;RuleValidator -->
<g id="edge10" class="edge">
<title>RuleManager&#45;&gt;RuleValidator</title>
<path fill="none" stroke="black" d="M515.37,-360.15C526.9,-346.67 541.58,-329.51 553.61,-315.45"/>
<polygon fill="black" stroke="black" points="556.24,-317.75 560.09,-307.88 550.93,-313.2 556.24,-317.75"/>
<text text-anchor="middle" x="559.77" y="-329.73" font-family="Microsoft YaHei" font-size="14.00">调用</text>
</g>
<!-- rules.yaml -->
<g id="node16" class="node">
<title>rules.yaml</title>
<path fill="lightgray" stroke="black" d="M722,-49.44C722,-51.28 687.49,-52.78 645,-52.78 602.51,-52.78 568,-51.28 568,-49.44 568,-49.44 568,-19.34 568,-19.34 568,-17.5 602.51,-16 645,-16 687.49,-16 722,-17.5 722,-19.34 722,-19.34 722,-49.44 722,-49.44"/>
<path fill="none" stroke="black" d="M722,-49.44C722,-47.59 687.49,-46.09 645,-46.09 602.51,-46.09 568,-47.59 568,-49.44"/>
<text text-anchor="middle" x="645" y="-30.47" font-family="Microsoft YaHei" font-size="14.00">rules.yaml (规则文件)</text>
</g>
<!-- RuleStorage&#45;&gt;rules.yaml -->
<g id="edge13" class="edge">
<title>RuleStorage&#45;&gt;rules.yaml</title>
<path fill="none" stroke="black" d="M463.7,-270.02C477.39,-240.32 507.88,-178.33 543.5,-132.53 564.46,-105.58 592.85,-79.05 614.28,-60.55"/>
<polygon fill="black" stroke="black" points="616.49,-63.26 621.84,-54.11 611.96,-57.93 616.49,-63.26"/>
<text text-anchor="middle" x="560.75" y="-154.61" font-family="Microsoft YaHei" font-size="14.00">读/写</text>
</g>
<!-- RuleValidator&#45;&gt;NetworkUtils -->
<g id="edge21" class="edge">
<title>RuleValidator&#45;&gt;NetworkUtils</title>
<path fill="none" stroke="black" d="M572.44,-269.99C570.77,-257.44 570.46,-240.47 577.5,-227.53 588.01,-208.21 606.66,-193.29 625,-182.42"/>
<polygon fill="black" stroke="black" points="626.46,-185.61 633.49,-177.68 623.05,-179.5 626.46,-185.61"/>
<text text-anchor="middle" x="620.25" y="-232.98" font-family="Microsoft YaHei" font-size="14.00">使用验证函数</text>
</g>
<!-- config.yaml_file -->
<g id="node17" class="node">
<title>config.yaml_file</title>
<path fill="lightgray" stroke="black" d="M903.5,-49.44C903.5,-51.28 866.97,-52.78 822,-52.78 777.03,-52.78 740.5,-51.28 740.5,-49.44 740.5,-49.44 740.5,-19.34 740.5,-19.34 740.5,-17.5 777.03,-16 822,-16 866.97,-16 903.5,-17.5 903.5,-19.34 903.5,-19.34 903.5,-49.44 903.5,-49.44"/>
<path fill="none" stroke="black" d="M903.5,-49.44C903.5,-47.59 866.97,-46.09 822,-46.09 777.03,-46.09 740.5,-47.59 740.5,-49.44"/>
<text text-anchor="middle" x="822" y="-30.47" font-family="Microsoft YaHei" font-size="14.00">config.yaml (配置文件)</text>
</g>
<!-- Config&#45;&gt;config.yaml_file -->
<g id="edge14" class="edge">
<title>Config&#45;&gt;config.yaml_file</title>
<path fill="none" stroke="black" d="M844.27,-140.03C840.07,-120.28 833.17,-87.85 828.16,-64.31"/>
<polygon fill="black" stroke="black" points="831.62,-63.79 826.12,-54.74 824.78,-65.25 831.62,-63.79"/>
<text text-anchor="middle" x="854.57" y="-109.23" font-family="Microsoft YaHei" font-size="14.00">读取</text>
</g>
<!-- firewall.log -->
<g id="node18" class="node">
<title>firewall.log</title>
<path fill="lightgray" stroke="black" d="M1114.5,-49.44C1114.5,-51.28 1071.25,-52.78 1018,-52.78 964.75,-52.78 921.5,-51.28 921.5,-49.44 921.5,-49.44 921.5,-19.34 921.5,-19.34 921.5,-17.5 964.75,-16 1018,-16 1071.25,-16 1114.5,-17.5 1114.5,-19.34 1114.5,-19.34 1114.5,-49.44 1114.5,-49.44"/>
<path fill="none" stroke="black" d="M1114.5,-49.44C1114.5,-47.59 1071.25,-46.09 1018,-46.09 964.75,-46.09 921.5,-47.59 921.5,-49.44"/>
<text text-anchor="middle" x="1018" y="-30.47" font-family="Microsoft YaHei" font-size="14.00">logs/firewall.log (日志文件)</text>
</g>
<!-- LoggingUtils&#45;&gt;firewall.log -->
<g id="edge15" class="edge">
<title>LoggingUtils&#45;&gt;firewall.log</title>
<path fill="none" stroke="black" d="M1018,-140.03C1018,-120.37 1018,-88.14 1018,-64.64"/>
<polygon fill="black" stroke="black" points="1021.5,-64.77 1018,-54.77 1014.5,-64.77 1021.5,-64.77"/>
<text text-anchor="middle" x="1032.25" y="-109.23" font-family="Microsoft YaHei" font-size="14.00">写入</text>
</g>
<!-- OSNetworkStack -->
<g id="node15" class="node">
<title>OSNetworkStack</title>
<polygon fill="orange" stroke="black" points="822.12,-535.03 677.88,-535.03 677.88,-499.03 822.12,-499.03 822.12,-535.03"/>
<text text-anchor="middle" x="750" y="-513.11" font-family="Microsoft YaHei" font-size="14.00">操作系统网络协议栈</text>
</g>
<!-- PyDivert&#45;&gt;OSNetworkStack -->
<g id="edge12" class="edge">
<title>PyDivert&#45;&gt;OSNetworkStack</title>
<path fill="none" stroke="black" d="M750,-598.72C750,-584.33 750,-563.67 750,-546.86"/>
<polygon fill="black" stroke="black" points="753.5,-546.96 750,-536.96 746.5,-546.96 753.5,-546.96"/>
<text text-anchor="middle" x="764.25" y="-563.23" font-family="Microsoft YaHei" font-size="14.00">交互</text>
</g>
</g>
</svg>
