<?xml version="1.0" encoding="UTF-8" standalone="no"?>
<!DOCTYPE svg PUBLIC "-//W3C//DTD SVG 1.1//EN"
 "http://www.w3.org/Graphics/SVG/1.1/DTD/svg11.dtd">
<!-- Generated by graphviz version 12.2.1 (20241206.2353)
 -->
<!-- Title: Firewall_System_Architecture Pages: 1 -->
<svg width="2113pt" height="667pt"
 viewBox="0.00 0.00 2113.00 666.53" xmlns="http://www.w3.org/2000/svg" xmlns:xlink="http://www.w3.org/1999/xlink">
<g id="graph0" class="graph" transform="scale(1 1) rotate(0) translate(4 662.53)">
<title>Firewall_System_Architecture</title>
<polygon fill="white" stroke="none" points="-4,4 -4,-662.53 2109,-662.53 2109,4 -4,4"/>
<text text-anchor="middle" x="1052.5" y="-635.53" font-family="Microsoft YaHei" font-size="20.00">防火墙系统架构图</text>
<g id="clust1" class="cluster">
<title>cluster_ui</title>
<polygon fill="skyblue" stroke="skyblue" points="660,-223.28 660,-401.03 1552,-401.03 1552,-223.28 660,-223.28"/>
<text text-anchor="middle" x="1106" y="-378.03" font-family="Microsoft YaHei" font-size="20.00">用户界面层 (UI Layer)</text>
</g>
<g id="clust2" class="cluster">
<title>cluster_core</title>
<polygon fill="palegreen" stroke="palegreen" points="274,-8.39 274,-615.53 652,-615.53 652,-8.39 274,-8.39"/>
<text text-anchor="middle" x="463" y="-592.53" font-family="Microsoft YaHei" font-size="20.00">核心逻辑层 (Core Logic Layer)</text>
</g>
<g id="clust3" class="cluster">
<title>cluster_utils</title>
<polygon fill="khaki" stroke="khaki" points="1560,-314.03 1560,-401.03 2097,-401.03 2097,-314.03 1560,-314.03"/>
<text text-anchor="middle" x="1828.5" y="-378.03" font-family="Microsoft YaHei" font-size="20.00">工具与配置层 (Utilities &amp; Config)</text>
</g>
<g id="clust4" class="cluster">
<title>cluster_data</title>
<polygon fill="lightgrey" stroke="lightgrey" points="1741,-8 1741,-95.78 2092,-95.78 2092,-8 1741,-8"/>
<text text-anchor="middle" x="1916.5" y="-72.78" font-family="Microsoft YaHei" font-size="20.00">数据存储 (Data Storage)</text>
</g>
<g id="clust5" class="cluster">
<title>cluster_os</title>
<polygon fill="peachpuff" stroke="peachpuff" points="8,-223.28 8,-401.03 266,-401.03 266,-223.28 8,-223.28"/>
<text text-anchor="middle" x="137" y="-378.03" font-family="Microsoft YaHei" font-size="20.00">操作系统/驱动 (OS/Driver)</text>
</g>
<!-- MainWindow -->
<g id="node1" class="node">
<title>MainWindow</title>
<polygon fill="lightblue" stroke="red" stroke-width="2" points="1087,-358.03 981,-358.03 981,-322.03 1087,-322.03 1087,-358.03"/>
<text text-anchor="middle" x="1034" y="-336.11" font-family="Microsoft YaHei" font-size="14.00">MainWindow</text>
</g>
<!-- IpFilterTab -->
<g id="node2" class="node">
<title>IpFilterTab</title>
<polygon fill="lightblue" stroke="black" points="901.62,-267.28 802.38,-267.28 802.38,-231.28 901.62,-231.28 901.62,-267.28"/>
<text text-anchor="middle" x="852" y="-245.36" font-family="Microsoft YaHei" font-size="14.00">IP过滤标签页</text>
</g>
<!-- MainWindow&#45;&gt;IpFilterTab -->
<g id="edge1" class="edge">
<title>MainWindow&#45;&gt;IpFilterTab</title>
<path fill="none" stroke="black" d="M997.17,-321.07C968.52,-307.1 928.61,-287.64 897.88,-272.66"/>
<polygon fill="black" stroke="black" points="899.73,-269.66 889.21,-268.42 896.66,-275.95 899.73,-269.66"/>
<text text-anchor="middle" x="973.55" y="-290.73" font-family="Microsoft YaHei" font-size="14.00">管理</text>
</g>
<!-- PortFilterTab -->
<g id="node3" class="node">
<title>PortFilterTab</title>
<polygon fill="lightblue" stroke="black" points="1035.88,-267.28 920.12,-267.28 920.12,-231.28 1035.88,-231.28 1035.88,-267.28"/>
<text text-anchor="middle" x="978" y="-245.36" font-family="Microsoft YaHei" font-size="14.00">端口过滤标签页</text>
</g>
<!-- MainWindow&#45;&gt;PortFilterTab -->
<g id="edge2" class="edge">
<title>MainWindow&#45;&gt;PortFilterTab</title>
<path fill="none" stroke="black" d="M1022.67,-321.07C1014.75,-308.52 1004.03,-291.53 995.08,-277.34"/>
<polygon fill="black" stroke="black" points="998.04,-275.48 989.74,-268.89 992.12,-279.22 998.04,-275.48"/>
<text text-anchor="middle" x="1025.27" y="-290.73" font-family="Microsoft YaHei" font-size="14.00">管理</text>
</g>
<!-- ContentFilterTab -->
<g id="node4" class="node">
<title>ContentFilterTab</title>
<polygon fill="lightblue" stroke="black" points="1169.88,-267.28 1054.12,-267.28 1054.12,-231.28 1169.88,-231.28 1169.88,-267.28"/>
<text text-anchor="middle" x="1112" y="-245.36" font-family="Microsoft YaHei" font-size="14.00">内容过滤标签页</text>
</g>
<!-- MainWindow&#45;&gt;ContentFilterTab -->
<g id="edge3" class="edge">
<title>MainWindow&#45;&gt;ContentFilterTab</title>
<path fill="none" stroke="black" d="M1049.78,-321.07C1061.14,-308.15 1076.62,-290.54 1089.3,-276.11"/>
<polygon fill="black" stroke="black" points="1091.8,-278.57 1095.77,-268.75 1086.54,-273.95 1091.8,-278.57"/>
<text text-anchor="middle" x="1094.24" y="-290.73" font-family="Microsoft YaHei" font-size="14.00">管理</text>
</g>
<!-- TrafficMonitorTab -->
<g id="node5" class="node">
<title>TrafficMonitorTab</title>
<polygon fill="lightblue" stroke="black" points="783.88,-267.28 668.12,-267.28 668.12,-231.28 783.88,-231.28 783.88,-267.28"/>
<text text-anchor="middle" x="726" y="-245.36" font-family="Microsoft YaHei" font-size="14.00">流量监控标签页</text>
</g>
<!-- MainWindow&#45;&gt;TrafficMonitorTab -->
<g id="edge4" class="edge">
<title>MainWindow&#45;&gt;TrafficMonitorTab</title>
<path fill="none" stroke="black" d="M980.13,-326.35C954.15,-320.03 922.6,-312.03 894.5,-304.03 859.23,-293.99 820.2,-281.62 788.59,-271.28"/>
<polygon fill="black" stroke="black" points="789.77,-267.99 779.18,-268.19 787.59,-274.64 789.77,-267.99"/>
<text text-anchor="middle" x="908.75" y="-290.73" font-family="Microsoft YaHei" font-size="14.00">管理</text>
</g>
<!-- LogTab -->
<g id="node6" class="node">
<title>LogTab</title>
<polygon fill="lightblue" stroke="black" points="1543.62,-267.28 1456.38,-267.28 1456.38,-231.28 1543.62,-231.28 1543.62,-267.28"/>
<text text-anchor="middle" x="1500" y="-245.36" font-family="Microsoft YaHei" font-size="14.00">日志标签页</text>
</g>
<!-- MainWindow&#45;&gt;LogTab -->
<g id="edge5" class="edge">
<title>MainWindow&#45;&gt;LogTab</title>
<path fill="none" stroke="black" d="M1087.89,-333.22C1140.06,-327.23 1221.27,-316.96 1291,-304.03 1357.62,-291.68 1376.55,-286.82 1445.15,-267.71"/>
<polygon fill="black" stroke="black" points="1445.97,-271.11 1454.66,-265.06 1444.09,-264.37 1445.97,-271.11"/>
<text text-anchor="middle" x="1394.22" y="-290.73" font-family="Microsoft YaHei" font-size="14.00">管理</text>
</g>
<!-- PerformanceTab -->
<g id="node7" class="node">
<title>PerformanceTab</title>
<polygon fill="lightblue" stroke="black" points="1437.88,-267.28 1322.12,-267.28 1322.12,-231.28 1437.88,-231.28 1437.88,-267.28"/>
<text text-anchor="middle" x="1380" y="-245.36" font-family="Microsoft YaHei" font-size="14.00">性能监控标签页</text>
</g>
<!-- MainWindow&#45;&gt;PerformanceTab -->
<g id="edge6" class="edge">
<title>MainWindow&#45;&gt;PerformanceTab</title>
<path fill="none" stroke="black" d="M1087.95,-327.81C1118.33,-321.29 1156.89,-312.68 1191,-304.03 1231.01,-293.89 1275.41,-281.33 1311.12,-270.9"/>
<polygon fill="black" stroke="black" points="1311.85,-274.34 1320.46,-268.17 1309.88,-267.62 1311.85,-274.34"/>
<text text-anchor="middle" x="1273.09" y="-290.73" font-family="Microsoft YaHei" font-size="14.00">管理</text>
</g>
<!-- AdvancedSettingsTab -->
<g id="node8" class="node">
<title>AdvancedSettingsTab</title>
<polygon fill="lightblue" stroke="black" points="1303.88,-267.28 1188.12,-267.28 1188.12,-231.28 1303.88,-231.28 1303.88,-267.28"/>
<text text-anchor="middle" x="1246" y="-245.36" font-family="Microsoft YaHei" font-size="14.00">高级设置标签页</text>
</g>
<!-- MainWindow&#45;&gt;AdvancedSettingsTab -->
<g id="edge7" class="edge">
<title>MainWindow&#45;&gt;AdvancedSettingsTab</title>
<path fill="none" stroke="black" d="M1076.9,-321.07C1110.71,-306.92 1157.98,-287.13 1193.95,-272.07"/>
<polygon fill="black" stroke="black" points="1194.98,-275.44 1202.85,-268.35 1192.27,-268.98 1194.98,-275.44"/>
<text text-anchor="middle" x="1173.24" y="-290.73" font-family="Microsoft YaHei" font-size="14.00">管理</text>
</g>
<!-- FirewallCore -->
<g id="node9" class="node">
<title>FirewallCore</title>
<polygon fill="lightgreen" stroke="red" stroke-width="2" points="643.62,-572.53 544.38,-572.53 544.38,-536.53 643.62,-536.53 643.62,-572.53"/>
<text text-anchor="middle" x="594" y="-550.61" font-family="Microsoft YaHei" font-size="14.00">Firewall 主控</text>
</g>
<!-- MainWindow&#45;&gt;FirewallCore -->
<g id="edge18" class="edge">
<title>MainWindow&#45;&gt;FirewallCore</title>
<path fill="none" stroke="black" d="M996.81,-358.99C917.02,-397.53 729.53,-488.07 641.38,-530.65"/>
<polygon fill="black" stroke="black" points="639.98,-527.44 632.5,-534.94 643.02,-533.74 639.98,-527.44"/>
<text text-anchor="middle" x="874" y="-459.86" font-family="Microsoft YaHei" font-size="14.00">用户操作/状态更新</text>
</g>
<!-- PacketInterceptor -->
<g id="node10" class="node">
<title>PacketInterceptor</title>
<polygon fill="lightgreen" stroke="red" stroke-width="2" points="469.88,-481.78 336.12,-481.78 336.12,-445.78 469.88,-445.78 469.88,-481.78"/>
<text text-anchor="middle" x="403" y="-459.86" font-family="Microsoft YaHei" font-size="14.00">PacketInterceptor</text>
</g>
<!-- FirewallCore&#45;&gt;PacketInterceptor -->
<g id="edge8" class="edge">
<title>FirewallCore&#45;&gt;PacketInterceptor</title>
<path fill="none" stroke="black" d="M543.39,-536.41C529.02,-531.12 513.49,-524.97 499.5,-518.53 480.13,-509.62 459.39,-498.31 442.11,-488.36"/>
<polygon fill="black" stroke="black" points="444.09,-485.46 433.69,-483.46 440.57,-491.51 444.09,-485.46"/>
<text text-anchor="middle" x="513.75" y="-505.23" font-family="Microsoft YaHei" font-size="14.00">控制</text>
</g>
<!-- RuleManager -->
<g id="node11" class="node">
<title>RuleManager</title>
<polygon fill="lightgreen" stroke="red" stroke-width="2" points="609,-176.53 503,-176.53 503,-140.53 609,-140.53 609,-176.53"/>
<text text-anchor="middle" x="556" y="-154.61" font-family="Microsoft YaHei" font-size="14.00">RuleManager</text>
</g>
<!-- FirewallCore&#45;&gt;RuleManager -->
<g id="edge9" class="edge">
<title>FirewallCore&#45;&gt;RuleManager</title>
<path fill="none" stroke="black" d="M600.29,-535.55C606.95,-514.11 615.77,-477.22 610,-445.78 606.16,-424.86 597.7,-421.78 593,-401.03 587.92,-378.58 582.82,-216.52 576,-194.53 575.26,-192.14 574.34,-189.74 573.29,-187.37"/>
<polygon fill="black" stroke="black" points="576.54,-186.02 568.87,-178.71 570.31,-189.21 576.54,-186.02"/>
<text text-anchor="middle" x="624.5" y="-336.11" font-family="Microsoft YaHei" font-size="14.00">使用/更新</text>
</g>
<!-- PacketAnalyzer -->
<g id="node12" class="node">
<title>PacketAnalyzer</title>
<polygon fill="lightgreen" stroke="red" stroke-width="2" points="552.25,-267.28 435.75,-267.28 435.75,-231.28 552.25,-231.28 552.25,-267.28"/>
<text text-anchor="middle" x="494" y="-245.36" font-family="Microsoft YaHei" font-size="14.00">PacketAnalyzer</text>
</g>
<!-- FirewallCore&#45;&gt;PacketAnalyzer -->
<g id="edge10" class="edge">
<title>FirewallCore&#45;&gt;PacketAnalyzer</title>
<path fill="none" stroke="black" d="M543.62,-546.55C474.59,-535.92 355.85,-513.53 327,-481.78 263.46,-411.87 387.15,-317.72 454.46,-274.18"/>
<polygon fill="black" stroke="black" points="456.12,-277.28 462.68,-268.95 452.36,-271.37 456.12,-277.28"/>
<text text-anchor="middle" x="329.81" y="-414.48" font-family="Microsoft YaHei" font-size="14.00">配置</text>
</g>
<!-- PacketProcessor -->
<g id="node13" class="node">
<title>PacketProcessor</title>
<polygon fill="lightgreen" stroke="red" stroke-width="2" points="545,-358.03 421,-358.03 421,-322.03 545,-322.03 545,-358.03"/>
<text text-anchor="middle" x="483" y="-336.11" font-family="Microsoft YaHei" font-size="14.00">PacketProcessor</text>
</g>
<!-- FirewallCore&#45;&gt;PacketProcessor -->
<g id="edge11" class="edge">
<title>FirewallCore&#45;&gt;PacketProcessor</title>
<path fill="none" stroke="black" d="M579.43,-535.79C568.8,-521.92 554.92,-501.71 547,-481.78 534.87,-451.26 547.1,-439.15 534,-409.03 527.48,-394.04 517.06,-379.29 507.33,-367.38"/>
<polygon fill="black" stroke="black" points="510.22,-365.38 501.08,-360.03 504.88,-369.91 510.22,-365.38"/>
<text text-anchor="middle" x="578.5" y="-459.86" font-family="Microsoft YaHei" font-size="14.00">控制/配置</text>
</g>
<!-- ConfigLoader -->
<g id="node16" class="node">
<title>ConfigLoader</title>
<polygon fill="lightyellow" stroke="black" points="2089.38,-358.03 1958.62,-358.03 1958.62,-322.03 2089.38,-322.03 2089.38,-358.03"/>
<text text-anchor="middle" x="2024" y="-336.11" font-family="Microsoft YaHei" font-size="14.00">Config (配置加载)</text>
</g>
<!-- FirewallCore&#45;&gt;ConfigLoader -->
<g id="edge20" class="edge">
<title>FirewallCore&#45;&gt;ConfigLoader</title>
<path fill="none" stroke="black" d="M644.31,-551.19C781,-544.48 1170.49,-522.94 1492,-481.78 1696.59,-455.59 1761.08,-486.04 1949,-401.03 1967.57,-392.63 1985.5,-378.57 1999.18,-366.18"/>
<polygon fill="black" stroke="black" points="2001.52,-368.78 2006.41,-359.38 1996.72,-363.68 2001.52,-368.78"/>
<text text-anchor="middle" x="1853.21" y="-459.86" font-family="Microsoft YaHei" font-size="14.00">读取配置</text>
</g>
<!-- LoggingUtils -->
<g id="node17" class="node">
<title>LoggingUtils</title>
<polygon fill="lightyellow" stroke="black" points="1940.12,-358.03 1837.88,-358.03 1837.88,-322.03 1940.12,-322.03 1940.12,-358.03"/>
<text text-anchor="middle" x="1889" y="-336.11" font-family="Microsoft YaHei" font-size="14.00">LoggingUtils</text>
</g>
<!-- FirewallCore&#45;&gt;LoggingUtils -->
<g id="edge19" class="edge">
<title>FirewallCore&#45;&gt;LoggingUtils</title>
<path fill="none" stroke="black" d="M644.61,-546.74C805.73,-525.24 1321.26,-457.17 1749,-409.03 1766.75,-407.03 1812.85,-408.68 1829,-401.03 1845.07,-393.42 1859.32,-379.64 1869.9,-367.21"/>
<polygon fill="black" stroke="black" points="1872.42,-369.66 1875.98,-359.68 1866.97,-365.27 1872.42,-369.66"/>
<text text-anchor="middle" x="1459.97" y="-459.86" font-family="Microsoft YaHei" font-size="14.00">记录日志</text>
</g>
<!-- PacketInterceptor&#45;&gt;PacketProcessor -->
<g id="edge14" class="edge">
<title>PacketInterceptor&#45;&gt;PacketProcessor</title>
<path fill="none" stroke="black" d="M369.47,-444.97C355.71,-435.19 344.67,-422.36 352.75,-409.03 365.59,-387.84 387.43,-372.95 409.6,-362.61"/>
<polygon fill="black" stroke="black" points="410.96,-365.84 418.74,-358.65 408.17,-359.42 410.96,-365.84"/>
<text text-anchor="middle" x="388.38" y="-414.48" font-family="Microsoft YaHei" font-size="14.00">传递数据包</text>
</g>
<!-- PyDivert -->
<g id="node23" class="node">
<title>PyDivert</title>
<polygon fill="orange" stroke="red" stroke-width="2" points="258.38,-358.03 79.62,-358.03 79.62,-322.03 258.38,-322.03 258.38,-358.03"/>
<text text-anchor="middle" x="169" y="-336.11" font-family="Microsoft YaHei" font-size="14.00">PyDivert/WinDivert 驱动</text>
</g>
<!-- PacketInterceptor&#45;&gt;PyDivert -->
<g id="edge25" class="edge">
<title>PacketInterceptor&#45;&gt;PyDivert</title>
<path fill="none" stroke="black" d="M335.36,-461.67C275.39,-459.12 194.15,-451.27 173,-427.78 159.2,-412.45 159.01,-388.73 161.82,-369.96"/>
<polygon fill="black" stroke="black" points="165.24,-370.72 163.65,-360.25 158.36,-369.43 165.24,-370.72"/>
<text text-anchor="middle" x="225.5" y="-414.48" font-family="Microsoft YaHei" font-size="14.00">使用 (捕获/注入)</text>
</g>
<!-- RuleStorage -->
<g id="node14" class="node">
<title>RuleStorage</title>
<polygon fill="lightgreen" stroke="black" points="450.12,-52.39 281.88,-52.39 281.88,-16.39 450.12,-16.39 450.12,-52.39"/>
<text text-anchor="middle" x="366" y="-30.47" font-family="Microsoft YaHei" font-size="14.00">RuleStorage (规则存储)</text>
</g>
<!-- RuleManager&#45;&gt;RuleStorage -->
<g id="edge12" class="edge">
<title>RuleManager&#45;&gt;RuleStorage</title>
<path fill="none" stroke="black" d="M527.94,-139.76C508.55,-127.46 482.17,-110.68 459,-95.78 440.01,-83.57 418.9,-69.87 401.6,-58.61"/>
<polygon fill="black" stroke="black" points="403.97,-55.98 393.68,-53.46 400.15,-61.85 403.97,-55.98"/>
<text text-anchor="middle" x="513.16" y="-109.23" font-family="Microsoft YaHei" font-size="14.00">调用</text>
</g>
<!-- RuleValidator -->
<g id="node15" class="node">
<title>RuleValidator</title>
<polygon fill="lightgreen" stroke="black" points="644.25,-52.39 467.75,-52.39 467.75,-16.39 644.25,-16.39 644.25,-52.39"/>
<text text-anchor="middle" x="556" y="-30.47" font-family="Microsoft YaHei" font-size="14.00">RuleValidator (规则验证)</text>
</g>
<!-- RuleManager&#45;&gt;RuleValidator -->
<g id="edge13" class="edge">
<title>RuleManager&#45;&gt;RuleValidator</title>
<path fill="none" stroke="black" d="M556,-139.77C556,-119.94 556,-87.55 556,-64.11"/>
<polygon fill="black" stroke="black" points="559.5,-64.29 556,-54.29 552.5,-64.29 559.5,-64.29"/>
<text text-anchor="middle" x="570.25" y="-109.23" font-family="Microsoft YaHei" font-size="14.00">调用</text>
</g>
<!-- rules.yaml -->
<g id="node20" class="node">
<title>rules.yaml</title>
<path fill="lightgray" stroke="black" d="M1832.75,-49.44C1832.75,-51.28 1814.04,-52.78 1791,-52.78 1767.96,-52.78 1749.25,-51.28 1749.25,-49.44 1749.25,-49.44 1749.25,-19.34 1749.25,-19.34 1749.25,-17.5 1767.96,-16 1791,-16 1814.04,-16 1832.75,-17.5 1832.75,-19.34 1832.75,-19.34 1832.75,-49.44 1832.75,-49.44"/>
<path fill="none" stroke="black" d="M1832.75,-49.44C1832.75,-47.59 1814.04,-46.09 1791,-46.09 1767.96,-46.09 1749.25,-47.59 1749.25,-49.44"/>
<text text-anchor="middle" x="1791" y="-30.47" font-family="Microsoft YaHei" font-size="14.00">rules.yaml</text>
</g>
<!-- RuleManager&#45;&gt;rules.yaml -->
<g id="edge21" class="edge">
<title>RuleManager&#45;&gt;rules.yaml</title>
<path fill="none" stroke="black" d="M609.86,-152.2C813.43,-132.07 1534.63,-60.75 1737.53,-40.68"/>
<polygon fill="black" stroke="black" points="1737.64,-44.18 1747.25,-39.72 1736.96,-37.22 1737.64,-44.18"/>
<text text-anchor="middle" x="1080.13" y="-109.23" font-family="Microsoft YaHei" font-size="14.00">读/写</text>
</g>
<!-- PacketAnalyzer&#45;&gt;RuleManager -->
<g id="edge16" class="edge">
<title>PacketAnalyzer&#45;&gt;RuleManager</title>
<path fill="none" stroke="black" d="M500.33,-230.42C504.66,-219.5 511.06,-205.55 519,-194.53 521.29,-191.35 523.9,-188.22 526.65,-185.22"/>
<polygon fill="black" stroke="black" points="529,-187.82 533.54,-178.25 524.02,-182.9 529,-187.82"/>
<text text-anchor="middle" x="547.5" y="-199.98" font-family="Microsoft YaHei" font-size="14.00">获取规则</text>
</g>
<!-- PacketProcessor&#45;&gt;TrafficMonitorTab -->
<g id="edge30" class="edge">
<title>PacketProcessor&#45;&gt;TrafficMonitorTab</title>
<path fill="none" stroke="black" d="M532.17,-321.07C571.26,-306.8 626.04,-286.79 667.4,-271.69"/>
<polygon fill="black" stroke="black" points="668.53,-275 676.72,-268.28 666.13,-268.42 668.53,-275"/>
<text text-anchor="middle" x="690.02" y="-290.73" font-family="Microsoft YaHei" font-size="14.00">更新流量 (通过信号)</text>
</g>
<!-- PacketProcessor&#45;&gt;PacketInterceptor -->
<g id="edge17" class="edge">
<title>PacketProcessor&#45;&gt;PacketInterceptor</title>
<path fill="none" stroke="black" d="M471.41,-358.67C458.19,-378.79 436.41,-411.93 420.98,-435.41"/>
<polygon fill="black" stroke="black" points="418.2,-433.27 415.64,-443.55 424.05,-437.12 418.2,-433.27"/>
<text text-anchor="middle" x="483.96" y="-414.48" font-family="Microsoft YaHei" font-size="14.00">发送/丢弃决策</text>
</g>
<!-- PacketProcessor&#45;&gt;PacketAnalyzer -->
<g id="edge15" class="edge">
<title>PacketProcessor&#45;&gt;PacketAnalyzer</title>
<path fill="none" stroke="black" d="M485.23,-321.07C486.7,-309.16 488.67,-293.26 490.37,-279.55"/>
<polygon fill="black" stroke="black" points="493.83,-280.07 491.59,-269.72 486.89,-279.21 493.83,-280.07"/>
<text text-anchor="middle" x="517.99" y="-290.73" font-family="Microsoft YaHei" font-size="14.00">请求分析</text>
</g>
<!-- config.yaml -->
<g id="node21" class="node">
<title>config.yaml</title>
<path fill="lightgray" stroke="black" d="M2084.25,-49.44C2084.25,-51.28 2063.52,-52.78 2038,-52.78 2012.48,-52.78 1991.75,-51.28 1991.75,-49.44 1991.75,-49.44 1991.75,-19.34 1991.75,-19.34 1991.75,-17.5 2012.48,-16 2038,-16 2063.52,-16 2084.25,-17.5 2084.25,-19.34 2084.25,-19.34 2084.25,-49.44 2084.25,-49.44"/>
<path fill="none" stroke="black" d="M2084.25,-49.44C2084.25,-47.59 2063.52,-46.09 2038,-46.09 2012.48,-46.09 1991.75,-47.59 1991.75,-49.44"/>
<text text-anchor="middle" x="2038" y="-30.47" font-family="Microsoft YaHei" font-size="14.00">config.yaml</text>
</g>
<!-- ConfigLoader&#45;&gt;config.yaml -->
<g id="edge22" class="edge">
<title>ConfigLoader&#45;&gt;config.yaml</title>
<path fill="none" stroke="black" d="M2024.79,-321.84C2027.09,-271.97 2033.78,-126.88 2036.66,-64.48"/>
<polygon fill="black" stroke="black" points="2040.15,-64.82 2037.11,-54.67 2033.15,-64.49 2040.15,-64.82"/>
<text text-anchor="middle" x="2044.77" y="-199.98" font-family="Microsoft YaHei" font-size="14.00">读取</text>
</g>
<!-- LoggingUtils&#45;&gt;LogTab -->
<g id="edge24" class="edge">
<title>LoggingUtils&#45;&gt;LogTab</title>
<path fill="none" stroke="black" d="M1850.73,-321.59C1843.61,-318.77 1836.15,-316.1 1829,-314.03 1803.67,-306.69 1796.44,-308.82 1770.5,-304.03 1695.77,-290.22 1609.73,-272.88 1555.13,-261.69"/>
<polygon fill="black" stroke="black" points="1555.95,-258.28 1545.45,-259.7 1554.55,-265.14 1555.95,-258.28"/>
<text text-anchor="middle" x="1834.25" y="-290.73" font-family="Microsoft YaHei" font-size="14.00">显示日志 (通过信号)</text>
</g>
<!-- firewall.log -->
<g id="node22" class="node">
<title>firewall.log</title>
<path fill="lightgray" stroke="black" d="M1973.25,-49.44C1973.25,-51.28 1945.8,-52.78 1912,-52.78 1878.2,-52.78 1850.75,-51.28 1850.75,-49.44 1850.75,-49.44 1850.75,-19.34 1850.75,-19.34 1850.75,-17.5 1878.2,-16 1912,-16 1945.8,-16 1973.25,-17.5 1973.25,-19.34 1973.25,-19.34 1973.25,-49.44 1973.25,-49.44"/>
<path fill="none" stroke="black" d="M1973.25,-49.44C1973.25,-47.59 1945.8,-46.09 1912,-46.09 1878.2,-46.09 1850.75,-47.59 1850.75,-49.44"/>
<text text-anchor="middle" x="1912" y="-30.47" font-family="Microsoft YaHei" font-size="14.00">logs/firewall.log</text>
</g>
<!-- LoggingUtils&#45;&gt;firewall.log -->
<g id="edge23" class="edge">
<title>LoggingUtils&#45;&gt;firewall.log</title>
<path fill="none" stroke="black" d="M1890.3,-321.84C1894.08,-271.97 1905.07,-126.88 1909.8,-64.48"/>
<polygon fill="black" stroke="black" points="1913.27,-64.9 1910.54,-54.66 1906.29,-64.37 1913.27,-64.9"/>
<text text-anchor="middle" x="1913.95" y="-199.98" font-family="Microsoft YaHei" font-size="14.00">写入</text>
</g>
<!-- NetworkUtils -->
<g id="node18" class="node">
<title>NetworkUtils</title>
<polygon fill="lightyellow" stroke="black" points="1819.88,-358.03 1716.12,-358.03 1716.12,-322.03 1819.88,-322.03 1819.88,-358.03"/>
<text text-anchor="middle" x="1768" y="-336.11" font-family="Microsoft YaHei" font-size="14.00">NetworkUtils</text>
</g>
<!-- NetworkUtils&#45;&gt;PacketAnalyzer -->
<g id="edge29" class="edge">
<title>NetworkUtils&#45;&gt;PacketAnalyzer</title>
<path fill="none" stroke="black" d="M1730.53,-321.57C1722.88,-318.61 1714.79,-315.9 1707,-314.03 1653.88,-301.3 1636.15,-321.82 1584.5,-304.03 1570.16,-299.09 1570.48,-289.78 1556,-285.28 1460.48,-255.63 755.83,-273.51 656,-267.28 625.98,-265.41 592.95,-262.16 564.58,-259"/>
<polygon fill="black" stroke="black" points="564.98,-255.52 554.65,-257.87 564.19,-262.48 564.98,-255.52"/>
<text text-anchor="middle" x="1627.25" y="-290.73" font-family="Microsoft YaHei" font-size="14.00">提供验证函数</text>
</g>
<!-- NetworkUtils&#45;&gt;RuleValidator -->
<g id="edge28" class="edge">
<title>NetworkUtils&#45;&gt;RuleValidator</title>
<path fill="none" stroke="black" d="M1799.44,-321.58C1813.92,-311.29 1825.92,-297.85 1816,-285.28 1672.09,-103.03 928.46,-51.93 656.1,-39.21"/>
<polygon fill="black" stroke="black" points="656.32,-35.71 646.17,-38.75 656,-42.71 656.32,-35.71"/>
<text text-anchor="middle" x="1755.96" y="-199.98" font-family="Microsoft YaHei" font-size="14.00">提供验证函数</text>
</g>
<!-- PerformanceUtils -->
<g id="node19" class="node">
<title>PerformanceUtils</title>
<polygon fill="lightyellow" stroke="black" points="1698.38,-358.03 1567.62,-358.03 1567.62,-322.03 1698.38,-322.03 1698.38,-358.03"/>
<text text-anchor="middle" x="1633" y="-336.11" font-family="Microsoft YaHei" font-size="14.00">PerformanceUtils</text>
</g>
<!-- PerformanceUtils&#45;&gt;PerformanceTab -->
<g id="edge27" class="edge">
<title>PerformanceUtils&#45;&gt;PerformanceTab</title>
<path fill="none" stroke="black" d="M1582.76,-321.6C1573.91,-318.85 1564.73,-316.2 1556,-314.03 1531.04,-307.82 1523.58,-311.61 1499,-304.03 1472.91,-295.99 1445.03,-283.62 1422.82,-272.77"/>
<polygon fill="black" stroke="black" points="1424.6,-269.75 1414.08,-268.43 1421.48,-276.01 1424.6,-269.75"/>
<text text-anchor="middle" x="1527.5" y="-290.73" font-family="Microsoft YaHei" font-size="14.00">提供数据</text>
</g>
<!-- NetworkStack -->
<g id="node24" class="node">
<title>NetworkStack</title>
<polygon fill="orange" stroke="black" points="241.12,-267.28 96.88,-267.28 96.88,-231.28 241.12,-231.28 241.12,-267.28"/>
<text text-anchor="middle" x="169" y="-245.36" font-family="Microsoft YaHei" font-size="14.00">操作系统网络协议栈</text>
</g>
<!-- PyDivert&#45;&gt;NetworkStack -->
<g id="edge26" class="edge">
<title>PyDivert&#45;&gt;NetworkStack</title>
<path fill="none" stroke="black" d="M169,-321.07C169,-309.01 169,-292.84 169,-279.01"/>
<polygon fill="black" stroke="black" points="172.5,-279.12 169,-269.12 165.5,-279.12 172.5,-279.12"/>
<text text-anchor="middle" x="183.25" y="-290.73" font-family="Microsoft YaHei" font-size="14.00">交互</text>
</g>
</g>
</svg>
