<?xml version="1.0" encoding="UTF-8" standalone="no"?>
<!DOCTYPE svg PUBLIC "-//W3C//DTD SVG 1.1//EN"
 "http://www.w3.org/Graphics/SVG/1.1/DTD/svg11.dtd">
<!-- Generated by graphviz version 12.2.1 (20241206.2353)
 -->
<!-- Title: NetworkFirewallArchitecture Pages: 1 -->
<svg width="567pt" height="475pt"
 viewBox="0.00 0.00 567.00 474.60" xmlns="http://www.w3.org/2000/svg" xmlns:xlink="http://www.w3.org/1999/xlink">
<g id="graph0" class="graph" transform="scale(0.401523 0.401523) rotate(0) translate(4 1178)">
<title>NetworkFirewallArchitecture</title>
<polygon fill="#f5f5f5" stroke="none" points="-4,4 -4,-1178 1408.12,-1178 1408.12,4 -4,4"/>
<text text-anchor="middle" x="702.06" y="-1149.1" font-family="Microsoft YaHei Bold" font-size="22.00">网络防火墙系统 &#45; 总体架构</text>
<g id="clust1" class="cluster">
<title>cluster_firewall_package</title>
<polygon fill="#d2e0bf" stroke="#d2e0bf" points="8,-8 8,-1061 1300,-1061 1300,-8 8,-8"/>
<text text-anchor="middle" x="654" y="-1039.9" font-family="Microsoft YaHei Bold" font-size="18.00">firewall (包)</text>
</g>
<g id="clust2" class="cluster">
<title>cluster_ui</title>
<polygon fill="#bde0fe" stroke="#bde0fe" points="16,-775.5 16,-1020.25 314,-1020.25 314,-775.5 16,-775.5"/>
<text text-anchor="middle" x="165" y="-1001.05" font-family="Microsoft YaHei Bold" font-size="16.00">用户界面 (ui)</text>
</g>
<g id="clust3" class="cluster">
<title>cluster_core</title>
<polygon fill="#c8e6c9" stroke="#c8e6c9" points="322,-161.5 322,-866.75 720,-866.75 720,-161.5 322,-161.5"/>
<text text-anchor="middle" x="521" y="-847.55" font-family="Microsoft YaHei Bold" font-size="16.00">核心 (core)</text>
</g>
<g id="clust4" class="cluster">
<title>cluster_utils</title>
<polygon fill="#ffdab9" stroke="#ffdab9" points="728,-161.5 728,-252.75 1292,-252.75 1292,-161.5 728,-161.5"/>
<text text-anchor="middle" x="1010" y="-233.55" font-family="Microsoft YaHei Bold" font-size="16.00">工具 (utils)</text>
</g>
<!-- main.py -->
<g id="node1" class="node">
<title>main.py</title>
<path fill="#cde8ff" stroke="black" d="M535.25,-1136C535.25,-1136 448.75,-1136 448.75,-1136 442.75,-1136 436.75,-1130 436.75,-1124 436.75,-1124 436.75,-1102.5 436.75,-1102.5 436.75,-1096.5 442.75,-1090.5 448.75,-1090.5 448.75,-1090.5 535.25,-1090.5 535.25,-1090.5 541.25,-1090.5 547.25,-1096.5 547.25,-1102.5 547.25,-1102.5 547.25,-1124 547.25,-1124 547.25,-1130 541.25,-1136 535.25,-1136"/>
<text text-anchor="middle" x="492" y="-1118.7" font-family="Microsoft YaHei" font-size="14.00">main.py</text>
<text text-anchor="middle" x="492" y="-1099.95" font-family="Microsoft YaHei" font-size="14.00">(应用程序入口)</text>
</g>
<!-- firewall.ui.main_window -->
<g id="node4" class="node">
<title>firewall.ui.main_window</title>
<path fill="#d8eefe" stroke="black" d="M139.5,-982.5C139.5,-982.5 36.5,-982.5 36.5,-982.5 30.5,-982.5 24.5,-976.5 24.5,-970.5 24.5,-970.5 24.5,-949 24.5,-949 24.5,-943 30.5,-937 36.5,-937 36.5,-937 139.5,-937 139.5,-937 145.5,-937 151.5,-943 151.5,-949 151.5,-949 151.5,-970.5 151.5,-970.5 151.5,-976.5 145.5,-982.5 139.5,-982.5"/>
<text text-anchor="middle" x="88" y="-965.2" font-family="Microsoft YaHei" font-size="14.00">main_window.py</text>
<text text-anchor="middle" x="88" y="-946.45" font-family="Microsoft YaHei" font-size="14.00">(主图形界面)</text>
</g>
<!-- main.py&#45;&gt;firewall.ui.main_window -->
<g id="edge23" class="edge">
<title>main.py&#45;&gt;firewall.ui.main_window</title>
<path fill="none" stroke="black" d="M436.67,-1113C326.03,-1113 88,-1113 88,-1113 88,-1113 88,-994.21 88,-994.21"/>
<polygon fill="black" stroke="black" points="91.5,-994.21 88,-984.21 84.5,-994.21 91.5,-994.21"/>
<text text-anchor="middle" x="151.19" y="-1113.95" font-family="Times New Roman,serif" font-size="14.00">初始化并运行</text>
</g>
<!-- firewall.config -->
<g id="node15" class="node">
<title>firewall.config</title>
<path fill="#e0e0e0" stroke="black" d="M1056,-829C1056,-829 998,-829 998,-829 992,-829 986,-823 986,-817 986,-817 986,-795.5 986,-795.5 986,-789.5 992,-783.5 998,-783.5 998,-783.5 1056,-783.5 1056,-783.5 1062,-783.5 1068,-789.5 1068,-795.5 1068,-795.5 1068,-817 1068,-817 1068,-823 1062,-829 1056,-829"/>
<text text-anchor="middle" x="1027" y="-811.7" font-family="Microsoft YaHei" font-size="14.00">config.py</text>
<text text-anchor="middle" x="1027" y="-792.95" font-family="Microsoft YaHei" font-size="14.00">(配置加载)</text>
</g>
<!-- main.py&#45;&gt;firewall.config -->
<g id="edge24" class="edge">
<title>main.py&#45;&gt;firewall.config</title>
<path fill="none" stroke="black" d="M547.74,-1113C684.77,-1113 1027,-1113 1027,-1113 1027,-1113 1027,-840.82 1027,-840.82"/>
<polygon fill="black" stroke="black" points="1030.5,-840.82 1027,-830.82 1023.5,-840.82 1030.5,-840.82"/>
<text text-anchor="middle" x="888.96" y="-1113.95" font-family="Times New Roman,serif" font-size="14.00">加载配置</text>
</g>
<!-- config.yaml -->
<g id="node2" class="node">
<title>config.yaml</title>
<polygon fill="#fffacd" stroke="black" points="1394.25,-675.5 1307.75,-675.5 1307.75,-630 1400.25,-630 1400.25,-669.5 1394.25,-675.5"/>
<polyline fill="none" stroke="black" points="1394.25,-675.5 1394.25,-669.5"/>
<polyline fill="none" stroke="black" points="1400.25,-669.5 1394.25,-669.5"/>
<text text-anchor="middle" x="1354" y="-658.2" font-family="Microsoft YaHei" font-size="14.00">config.yaml</text>
<text text-anchor="middle" x="1354" y="-639.45" font-family="Microsoft YaHei" font-size="14.00">(用户配置)</text>
</g>
<!-- rules.yaml -->
<g id="node3" class="node">
<title>rules.yaml</title>
<polygon fill="#fffacd" stroke="black" points="1398.12,-61.5 1307.88,-61.5 1307.88,-16 1404.12,-16 1404.12,-55.5 1398.12,-61.5"/>
<polyline fill="none" stroke="black" points="1398.12,-61.5 1398.12,-55.5"/>
<polyline fill="none" stroke="black" points="1404.12,-55.5 1398.12,-55.5"/>
<text text-anchor="middle" x="1356" y="-44.2" font-family="Microsoft YaHei" font-size="14.00">rules.yaml</text>
<text text-anchor="middle" x="1356" y="-25.45" font-family="Microsoft YaHei" font-size="14.00">(防火墙规则)</text>
</g>
<!-- firewall.ui.tabs -->
<g id="node5" class="node">
<title>firewall.ui.tabs</title>
<polygon fill="#d8eefe" stroke="black" points="136.12,-829 133.12,-833 112.12,-833 109.12,-829 39.88,-829 39.88,-783.5 136.12,-783.5 136.12,-829"/>
<text text-anchor="middle" x="88" y="-811.7" font-family="Microsoft YaHei" font-size="14.00">tabs/</text>
<text text-anchor="middle" x="88" y="-792.95" font-family="Microsoft YaHei" font-size="14.00">(界面选项卡)</text>
</g>
<!-- firewall.ui.main_window&#45;&gt;firewall.ui.tabs -->
<g id="edge1" class="edge">
<title>firewall.ui.main_window&#45;&gt;firewall.ui.tabs</title>
<path fill="none" stroke="black" d="M88,-936.77C88,-936.77 88,-840.9 88,-840.9"/>
<polygon fill="black" stroke="black" points="91.5,-840.9 88,-830.9 84.5,-840.9 91.5,-840.9"/>
</g>
<!-- firewall.core.firewall -->
<g id="node7" class="node">
<title>firewall.core.firewall</title>
<path fill="#ddedda" stroke="black" d="M598.25,-829C598.25,-829 511.75,-829 511.75,-829 505.75,-829 499.75,-823 499.75,-817 499.75,-817 499.75,-795.5 499.75,-795.5 499.75,-789.5 505.75,-783.5 511.75,-783.5 511.75,-783.5 598.25,-783.5 598.25,-783.5 604.25,-783.5 610.25,-789.5 610.25,-795.5 610.25,-795.5 610.25,-817 610.25,-817 610.25,-823 604.25,-829 598.25,-829"/>
<text text-anchor="middle" x="555" y="-811.7" font-family="Microsoft YaHei" font-size="14.00">firewall.py</text>
<text text-anchor="middle" x="555" y="-792.95" font-family="Microsoft YaHei" font-size="14.00">(防火墙协调器)</text>
</g>
<!-- firewall.ui.main_window&#45;&gt;firewall.core.firewall -->
<g id="edge2" class="edge">
<title>firewall.ui.main_window&#45;&gt;firewall.core.firewall</title>
<path fill="none" stroke="black" d="M148.43,-936.66C148.43,-895.56 148.43,-814 148.43,-814 148.43,-814 487.81,-814 487.81,-814"/>
<polygon fill="black" stroke="black" points="487.81,-817.5 497.81,-814 487.81,-810.5 487.81,-817.5"/>
<text text-anchor="middle" x="220.41" y="-817.2" font-family="Times New Roman,serif" font-size="14.00">控制/观察</text>
</g>
<!-- firewall.utils.logging_utils -->
<g id="node12" class="node">
<title>firewall.utils.logging_utils</title>
<path fill="#ffe4c4" stroke="black" d="M1044.25,-215C1044.25,-215 945.75,-215 945.75,-215 939.75,-215 933.75,-209 933.75,-203 933.75,-203 933.75,-181.5 933.75,-181.5 933.75,-175.5 939.75,-169.5 945.75,-169.5 945.75,-169.5 1044.25,-169.5 1044.25,-169.5 1050.25,-169.5 1056.25,-175.5 1056.25,-181.5 1056.25,-181.5 1056.25,-203 1056.25,-203 1056.25,-209 1050.25,-215 1044.25,-215"/>
<text text-anchor="middle" x="995" y="-197.7" font-family="Microsoft YaHei" font-size="14.00">logging_utils.py</text>
<text text-anchor="middle" x="995" y="-178.95" font-family="Microsoft YaHei" font-size="14.00">(日志工具)</text>
</g>
<!-- firewall.ui.main_window&#45;&gt;firewall.utils.logging_utils -->
<g id="edge4" class="edge">
<title>firewall.ui.main_window&#45;&gt;firewall.utils.logging_utils</title>
<path fill="none" stroke="black" d="M139.2,-936.72C139.2,-906.16 139.2,-856 139.2,-856 139.2,-856 968.58,-856 968.58,-856 968.58,-856 968.58,-227 968.58,-227"/>
<polygon fill="black" stroke="black" points="972.08,-227 968.58,-217 965.08,-227 972.08,-227"/>
<text text-anchor="middle" x="784.91" y="-856.95" font-family="Times New Roman,serif" font-size="14.00">记录日志到</text>
</g>
<!-- firewall.ui.main_window&#45;&gt;firewall.config -->
<g id="edge3" class="edge">
<title>firewall.ui.main_window&#45;&gt;firewall.config</title>
<path fill="none" stroke="black" d="M142.28,-936.72C142.28,-914.12 142.28,-883 142.28,-883 142.28,-883 1006.5,-883 1006.5,-883 1006.5,-883 1006.5,-840.79 1006.5,-840.79"/>
<polygon fill="black" stroke="black" points="1010,-840.79 1006.5,-830.79 1003,-840.79 1010,-840.79"/>
<text text-anchor="middle" x="534.13" y="-883.95" font-family="Times New Roman,serif" font-size="14.00">使用配置</text>
</g>
<!-- firewall.ui.ui_utils -->
<g id="node6" class="node">
<title>firewall.ui.ui_utils</title>
<path fill="#d8eefe" stroke="black" d="M294.38,-982.5C294.38,-982.5 235.62,-982.5 235.62,-982.5 229.62,-982.5 223.62,-976.5 223.62,-970.5 223.62,-970.5 223.62,-949 223.62,-949 223.62,-943 229.62,-937 235.62,-937 235.62,-937 294.38,-937 294.38,-937 300.38,-937 306.38,-943 306.38,-949 306.38,-949 306.38,-970.5 306.38,-970.5 306.38,-976.5 300.38,-982.5 294.38,-982.5"/>
<text text-anchor="middle" x="265" y="-965.2" font-family="Microsoft YaHei" font-size="14.00">ui_utils.py</text>
<text text-anchor="middle" x="265" y="-946.45" font-family="Microsoft YaHei" font-size="14.00">(界面工具)</text>
</g>
<!-- firewall.core.packet_interceptor -->
<g id="node8" class="node">
<title>firewall.core.packet_interceptor</title>
<path fill="#ddedda" stroke="black" d="M699.62,-675.5C699.62,-675.5 564.38,-675.5 564.38,-675.5 558.38,-675.5 552.38,-669.5 552.38,-663.5 552.38,-663.5 552.38,-642 552.38,-642 552.38,-636 558.38,-630 564.38,-630 564.38,-630 699.62,-630 699.62,-630 705.62,-630 711.62,-636 711.62,-642 711.62,-642 711.62,-663.5 711.62,-663.5 711.62,-669.5 705.62,-675.5 699.62,-675.5"/>
<text text-anchor="middle" x="632" y="-658.2" font-family="Microsoft YaHei" font-size="14.00">packet_interceptor.py</text>
<text text-anchor="middle" x="632" y="-639.45" font-family="Microsoft YaHei" font-size="14.00">(数据包捕获)</text>
</g>
<!-- firewall.core.firewall&#45;&gt;firewall.core.packet_interceptor -->
<g id="edge5" class="edge">
<title>firewall.core.firewall&#45;&gt;firewall.core.packet_interceptor</title>
<path fill="none" stroke="black" d="M581.31,-783.27C581.31,-783.27 581.31,-687.4 581.31,-687.4"/>
<polygon fill="black" stroke="black" points="584.81,-687.4 581.31,-677.4 577.81,-687.4 584.81,-687.4"/>
<text text-anchor="middle" x="564.06" y="-736.29" font-family="Times New Roman,serif" font-size="14.00">使用</text>
</g>
<!-- firewall.core.packet_analyzer -->
<g id="node9" class="node">
<title>firewall.core.packet_analyzer</title>
<path fill="#ddedda" stroke="black" d="M613.88,-368.5C613.88,-368.5 498.12,-368.5 498.12,-368.5 492.12,-368.5 486.12,-362.5 486.12,-356.5 486.12,-356.5 486.12,-335 486.12,-335 486.12,-329 492.12,-323 498.12,-323 498.12,-323 613.88,-323 613.88,-323 619.88,-323 625.88,-329 625.88,-335 625.88,-335 625.88,-356.5 625.88,-356.5 625.88,-362.5 619.88,-368.5 613.88,-368.5"/>
<text text-anchor="middle" x="556" y="-351.2" font-family="Microsoft YaHei" font-size="14.00">packet_analyzer.py</text>
<text text-anchor="middle" x="556" y="-332.45" font-family="Microsoft YaHei" font-size="14.00">(分析引擎)</text>
</g>
<!-- firewall.core.firewall&#45;&gt;firewall.core.packet_analyzer -->
<g id="edge6" class="edge">
<title>firewall.core.firewall&#45;&gt;firewall.core.packet_analyzer</title>
<path fill="none" stroke="black" d="M499.33,-799C478.05,-799 458.81,-799 458.81,-799 458.81,-799 458.81,-346 458.81,-346 458.81,-346 474.11,-346 474.11,-346"/>
<polygon fill="black" stroke="black" points="474.11,-349.5 484.11,-346 474.11,-342.5 474.11,-349.5"/>
<text text-anchor="middle" x="441.56" y="-586.06" font-family="Times New Roman,serif" font-size="14.00">使用</text>
</g>
<!-- firewall.core.rule_manager -->
<g id="node10" class="node">
<title>firewall.core.rule_manager</title>
<path fill="#ddedda" stroke="black" d="M652.12,-215C652.12,-215 549.88,-215 549.88,-215 543.88,-215 537.88,-209 537.88,-203 537.88,-203 537.88,-181.5 537.88,-181.5 537.88,-175.5 543.88,-169.5 549.88,-169.5 549.88,-169.5 652.12,-169.5 652.12,-169.5 658.12,-169.5 664.12,-175.5 664.12,-181.5 664.12,-181.5 664.12,-203 664.12,-203 664.12,-209 658.12,-215 652.12,-215"/>
<text text-anchor="middle" x="601" y="-197.7" font-family="Microsoft YaHei" font-size="14.00">rule_manager.py</text>
<text text-anchor="middle" x="601" y="-178.95" font-family="Microsoft YaHei" font-size="14.00">(规则引擎)</text>
</g>
<!-- firewall.core.firewall&#45;&gt;firewall.core.rule_manager -->
<g id="edge7" class="edge">
<title>firewall.core.firewall&#45;&gt;firewall.core.rule_manager</title>
<path fill="none" stroke="black" d="M534.83,-783.33C534.83,-725.09 534.83,-576 534.83,-576 534.83,-576 647.62,-576 647.62,-576 647.62,-576 647.62,-226.9 647.62,-226.9"/>
<polygon fill="black" stroke="black" points="651.13,-226.9 647.63,-216.9 644.13,-226.9 651.13,-226.9"/>
<text text-anchor="middle" x="630.38" y="-562.46" font-family="Times New Roman,serif" font-size="14.00">使用</text>
</g>
<!-- firewall.core.packet_processor -->
<g id="node11" class="node">
<title>firewall.core.packet_processor</title>
<path fill="#ddedda" stroke="black" d="M619.12,-522C619.12,-522 492.88,-522 492.88,-522 486.88,-522 480.88,-516 480.88,-510 480.88,-510 480.88,-488.5 480.88,-488.5 480.88,-482.5 486.88,-476.5 492.88,-476.5 492.88,-476.5 619.12,-476.5 619.12,-476.5 625.12,-476.5 631.12,-482.5 631.12,-488.5 631.12,-488.5 631.12,-510 631.12,-510 631.12,-516 625.12,-522 619.12,-522"/>
<text text-anchor="middle" x="556" y="-504.7" font-family="Microsoft YaHei" font-size="14.00">packet_processor.py</text>
<text text-anchor="middle" x="556" y="-485.95" font-family="Microsoft YaHei" font-size="14.00">(数据包处理)</text>
</g>
<!-- firewall.core.firewall&#45;&gt;firewall.core.packet_processor -->
<g id="edge8" class="edge">
<title>firewall.core.firewall&#45;&gt;firewall.core.packet_processor</title>
<path fill="none" stroke="black" d="M517.29,-783.18C517.29,-783.18 517.29,-533.69 517.29,-533.69"/>
<polygon fill="black" stroke="black" points="520.79,-533.69 517.29,-523.69 513.79,-533.69 520.79,-533.69"/>
<text text-anchor="middle" x="500.04" y="-659.38" font-family="Times New Roman,serif" font-size="14.00">使用</text>
</g>
<!-- firewall.core.firewall&#45;&gt;firewall.utils.logging_utils -->
<g id="edge10" class="edge">
<title>firewall.core.firewall&#45;&gt;firewall.utils.logging_utils</title>
<path fill="none" stroke="black" d="M610.5,-814C719.53,-814 951.17,-814 951.17,-814 951.17,-814 951.17,-227 951.17,-227"/>
<polygon fill="black" stroke="black" points="954.67,-227 951.17,-217 947.67,-227 954.67,-227"/>
<text text-anchor="middle" x="916.67" y="-691.78" font-family="Times New Roman,serif" font-size="14.00">记录事件</text>
</g>
<!-- firewall.utils.network_utils -->
<g id="node13" class="node">
<title>firewall.utils.network_utils</title>
<path fill="#ffe4c4" stroke="black" d="M849.75,-215C849.75,-215 748.25,-215 748.25,-215 742.25,-215 736.25,-209 736.25,-203 736.25,-203 736.25,-181.5 736.25,-181.5 736.25,-175.5 742.25,-169.5 748.25,-169.5 748.25,-169.5 849.75,-169.5 849.75,-169.5 855.75,-169.5 861.75,-175.5 861.75,-181.5 861.75,-181.5 861.75,-203 861.75,-203 861.75,-209 855.75,-215 849.75,-215"/>
<text text-anchor="middle" x="799" y="-197.7" font-family="Microsoft YaHei" font-size="14.00">network_utils.py</text>
<text text-anchor="middle" x="799" y="-178.95" font-family="Microsoft YaHei" font-size="14.00">(网络工具)</text>
</g>
<!-- firewall.core.firewall&#45;&gt;firewall.utils.network_utils -->
<g id="edge16" class="edge">
<title>firewall.core.firewall&#45;&gt;firewall.utils.network_utils</title>
<path fill="none" stroke="black" d="M610.54,-806C688.22,-806 819.92,-806 819.92,-806 819.92,-806 819.92,-226.7 819.92,-226.7"/>
<polygon fill="black" stroke="black" points="823.42,-226.7 819.92,-216.7 816.42,-226.7 823.42,-226.7"/>
<text text-anchor="middle" x="802.67" y="-621.99" font-family="Times New Roman,serif" font-size="14.00">使用</text>
</g>
<!-- firewall.core.firewall&#45;&gt;firewall.config -->
<g id="edge9" class="edge">
<title>firewall.core.firewall&#45;&gt;firewall.config</title>
<path fill="none" stroke="black" d="M610.53,-821C610.53,-821 974.3,-821 974.3,-821"/>
<polygon fill="black" stroke="black" points="974.3,-824.5 984.3,-821 974.3,-817.5 974.3,-824.5"/>
<text text-anchor="middle" x="757.91" y="-821.95" font-family="Times New Roman,serif" font-size="14.00">使用配置</text>
</g>
<!-- firewall.core.packet_interceptor&#45;&gt;firewall.core.packet_processor -->
<g id="edge11" class="edge">
<title>firewall.core.packet_interceptor&#45;&gt;firewall.core.packet_processor</title>
<path fill="none" stroke="black" d="M591.75,-629.77C591.75,-629.77 591.75,-533.9 591.75,-533.9"/>
<polygon fill="black" stroke="black" points="595.25,-533.9 591.75,-523.9 588.25,-533.9 595.25,-533.9"/>
<text text-anchor="middle" x="540" y="-582.79" font-family="Times New Roman,serif" font-size="14.00">发送数据包到</text>
</g>
<!-- firewall.core.packet_interceptor&#45;&gt;firewall.utils.network_utils -->
<g id="edge17" class="edge">
<title>firewall.core.packet_interceptor&#45;&gt;firewall.utils.network_utils</title>
<path fill="none" stroke="black" d="M687.88,-629.55C687.88,-535.17 687.88,-185 687.88,-185 687.88,-185 724.46,-185 724.46,-185"/>
<polygon fill="black" stroke="black" points="724.46,-188.5 734.46,-185 724.46,-181.5 724.46,-188.5"/>
<text text-anchor="middle" x="670.62" y="-389.94" font-family="Times New Roman,serif" font-size="14.00">使用</text>
</g>
<!-- firewall.core.packet_analyzer&#45;&gt;firewall.core.rule_manager -->
<g id="edge13" class="edge">
<title>firewall.core.packet_analyzer&#45;&gt;firewall.core.rule_manager</title>
<path fill="none" stroke="black" d="M581.88,-322.77C581.88,-322.77 581.88,-226.9 581.88,-226.9"/>
<polygon fill="black" stroke="black" points="585.38,-226.9 581.88,-216.9 578.38,-226.9 585.38,-226.9"/>
<text text-anchor="middle" x="547.38" y="-275.79" font-family="Times New Roman,serif" font-size="14.00">查阅规则</text>
</g>
<!-- firewall.core.packet_analyzer&#45;&gt;firewall.utils.network_utils -->
<g id="edge18" class="edge">
<title>firewall.core.packet_analyzer&#45;&gt;firewall.utils.network_utils</title>
<path fill="none" stroke="black" d="M626.27,-346C691.33,-346 778.08,-346 778.08,-346 778.08,-346 778.08,-226.78 778.08,-226.78"/>
<polygon fill="black" stroke="black" points="781.58,-226.78 778.08,-216.78 774.58,-226.78 781.58,-226.78"/>
<text text-anchor="middle" x="744.54" y="-346.95" font-family="Times New Roman,serif" font-size="14.00">使用</text>
</g>
<!-- firewall.constants -->
<g id="node16" class="node">
<title>firewall.constants</title>
<path fill="#e0e0e0" stroke="black" d="M571.38,-61.5C571.38,-61.5 494.62,-61.5 494.62,-61.5 488.62,-61.5 482.62,-55.5 482.62,-49.5 482.62,-49.5 482.62,-28 482.62,-28 482.62,-22 488.62,-16 494.62,-16 494.62,-16 571.38,-16 571.38,-16 577.38,-16 583.38,-22 583.38,-28 583.38,-28 583.38,-49.5 583.38,-49.5 583.38,-55.5 577.38,-61.5 571.38,-61.5"/>
<text text-anchor="middle" x="533" y="-44.2" font-family="Microsoft YaHei" font-size="14.00">constants.py</text>
<text text-anchor="middle" x="533" y="-25.45" font-family="Microsoft YaHei" font-size="14.00">(常量)</text>
</g>
<!-- firewall.core.packet_analyzer&#45;&gt;firewall.constants -->
<g id="edge14" class="edge">
<title>firewall.core.packet_analyzer&#45;&gt;firewall.constants</title>
<path fill="none" stroke="black" d="M512,-322.68C512,-322.68 512,-73.19 512,-73.19"/>
<polygon fill="black" stroke="black" points="515.5,-73.19 512,-63.19 508.5,-73.19 515.5,-73.19"/>
<text text-anchor="middle" x="477.5" y="-198.88" font-family="Times New Roman,serif" font-size="14.00">使用常量</text>
</g>
<!-- firewall.core.rule_manager&#45;&gt;rules.yaml -->
<g id="edge26" class="edge">
<title>firewall.core.rule_manager&#45;&gt;rules.yaml</title>
<path fill="none" stroke="#808080" stroke-dasharray="5,2" d="M623.75,-169.31C623.75,-126.56 623.75,-39 623.75,-39 623.75,-39 1295.87,-39 1295.87,-39"/>
<polygon fill="#808080" stroke="#808080" points="1295.87,-42.5 1305.87,-39 1295.87,-35.5 1295.87,-42.5"/>
<text text-anchor="middle" x="868.78" y="-39.95" font-family="Times New Roman,serif" font-size="14.00">读取自</text>
</g>
<!-- firewall.core.rule_manager&#45;&gt;firewall.constants -->
<g id="edge15" class="edge">
<title>firewall.core.rule_manager&#45;&gt;firewall.constants</title>
<path fill="none" stroke="black" d="M560.62,-169.27C560.62,-169.27 560.62,-73.4 560.62,-73.4"/>
<polygon fill="black" stroke="black" points="564.13,-73.4 560.63,-63.4 557.13,-73.4 564.13,-73.4"/>
<text text-anchor="middle" x="526.12" y="-122.29" font-family="Times New Roman,serif" font-size="14.00">使用常量</text>
</g>
<!-- firewall.core.packet_processor&#45;&gt;firewall.core.packet_analyzer -->
<g id="edge12" class="edge">
<title>firewall.core.packet_processor&#45;&gt;firewall.core.packet_analyzer</title>
<path fill="none" stroke="black" d="M556,-476.27C556,-476.27 556,-380.4 556,-380.4"/>
<polygon fill="black" stroke="black" points="559.5,-380.4 556,-370.4 552.5,-380.4 559.5,-380.4"/>
<text text-anchor="middle" x="504.25" y="-429.29" font-family="Times New Roman,serif" font-size="14.00">发送数据包到</text>
</g>
<!-- firewall.utils.performance_utils -->
<g id="node14" class="node">
<title>firewall.utils.performance_utils</title>
<path fill="#ffe4c4" stroke="black" d="M1272.12,-215C1272.12,-215 1139.88,-215 1139.88,-215 1133.88,-215 1127.88,-209 1127.88,-203 1127.88,-203 1127.88,-181.5 1127.88,-181.5 1127.88,-175.5 1133.88,-169.5 1139.88,-169.5 1139.88,-169.5 1272.12,-169.5 1272.12,-169.5 1278.12,-169.5 1284.12,-175.5 1284.12,-181.5 1284.12,-181.5 1284.12,-203 1284.12,-203 1284.12,-209 1278.12,-215 1272.12,-215"/>
<text text-anchor="middle" x="1206" y="-197.7" font-family="Microsoft YaHei" font-size="14.00">performance_utils.py</text>
<text text-anchor="middle" x="1206" y="-178.95" font-family="Microsoft YaHei" font-size="14.00">(性能工具)</text>
</g>
<!-- firewall.config&#45;&gt;config.yaml -->
<g id="edge25" class="edge">
<title>firewall.config&#45;&gt;config.yaml</title>
<path fill="none" stroke="#808080" stroke-dasharray="5,2" d="M1062.12,-783.31C1062.12,-740.56 1062.12,-653 1062.12,-653 1062.12,-653 1295.92,-653 1295.92,-653"/>
<polygon fill="#808080" stroke="#808080" points="1295.92,-656.5 1305.92,-653 1295.92,-649.5 1295.92,-656.5"/>
<text text-anchor="middle" x="1087.99" y="-653.95" font-family="Times New Roman,serif" font-size="14.00">读取自</text>
</g>
<!-- firewall.config&#45;&gt;firewall.ui.main_window -->
<g id="edge22" class="edge">
<title>firewall.config&#45;&gt;firewall.ui.main_window</title>
<path fill="none" stroke="black" d="M1047.5,-829.28C1047.5,-859.84 1047.5,-910 1047.5,-910 1047.5,-910 145.35,-910 145.35,-910 145.35,-910 145.35,-925.11 145.35,-925.11"/>
<polygon fill="black" stroke="black" points="141.85,-925.11 145.35,-935.11 148.85,-925.11 141.85,-925.11"/>
<text text-anchor="middle" x="598.48" y="-913.2" font-family="Times New Roman,serif" font-size="14.00">配置 (UI)</text>
</g>
<!-- firewall.config&#45;&gt;firewall.core.packet_interceptor -->
<g id="edge20" class="edge">
<title>firewall.config&#45;&gt;firewall.core.packet_interceptor</title>
<path fill="none" stroke="black" d="M985.66,-799C896.75,-799 695.31,-799 695.31,-799 695.31,-799 695.31,-687.44 695.31,-687.44"/>
<polygon fill="black" stroke="black" points="698.81,-687.44 695.31,-677.44 691.81,-687.44 698.81,-687.44"/>
<text text-anchor="middle" x="735.21" y="-802.2" font-family="Times New Roman,serif" font-size="14.00">配置 (拦截器)</text>
</g>
<!-- firewall.config&#45;&gt;firewall.core.rule_manager -->
<g id="edge21" class="edge">
<title>firewall.config&#45;&gt;firewall.core.rule_manager</title>
<path fill="none" stroke="black" d="M985.81,-791C902.95,-791 723.94,-791 723.94,-791 723.94,-791 723.94,-200 723.94,-200 723.94,-200 675.78,-200 675.78,-200"/>
<polygon fill="black" stroke="black" points="675.78,-196.5 665.78,-200 675.78,-203.5 675.78,-196.5"/>
<text text-anchor="middle" x="683.06" y="-605.56" font-family="Times New Roman,serif" font-size="14.00">配置 (规则)</text>
</g>
<!-- firewall.config&#45;&gt;firewall.utils.logging_utils -->
<g id="edge19" class="edge">
<title>firewall.config&#45;&gt;firewall.utils.logging_utils</title>
<path fill="none" stroke="black" d="M1021.12,-783.3C1021.12,-783.3 1021.12,-226.83 1021.12,-226.83"/>
<polygon fill="black" stroke="black" points="1024.63,-226.83 1021.13,-216.83 1017.63,-226.83 1024.63,-226.83"/>
<text text-anchor="middle" x="980.25" y="-508.26" font-family="Times New Roman,serif" font-size="14.00">配置 (日志)</text>
</g>
<!-- firewall.__init__ -->
<g id="node17" class="node">
<title>firewall.__init__</title>
<path fill="#e0e0e0" stroke="black" d="M667,-982.5C667,-982.5 609,-982.5 609,-982.5 603,-982.5 597,-976.5 597,-970.5 597,-970.5 597,-949 597,-949 597,-943 603,-937 609,-937 609,-937 667,-937 667,-937 673,-937 679,-943 679,-949 679,-949 679,-970.5 679,-970.5 679,-976.5 673,-982.5 667,-982.5"/>
<text text-anchor="middle" x="638" y="-965.2" font-family="Microsoft YaHei" font-size="14.00">__init__.py</text>
<text text-anchor="middle" x="638" y="-946.45" font-family="Microsoft YaHei" font-size="14.00">(包初始化)</text>
</g>
</g>
</svg>
